<svg xmlns="http://www.w3.org/2000/svg" width="512" height="512" viewBox="0 0 128 128"><path d="M126.25 116.938H118V74.176a2.764 2.764 0 0 0 .364-.312l8.006-8.424a5.9 5.9 0 0 0-.094-8.258 6.066 6.066 0 0 0-4.292-1.744h-.277a8.606 8.606 0 0 0-4.009 1.007A53.937 53.937 0 0 0 74.771 9.1a5.921 5.921 0 0 0-5-9.1h-.37A8.656 8.656 0 0 0 64 1.916 8.656 8.656 0 0 0 58.594 0h-.278a6.068 6.068 0 0 0-4.292 1.745 5.9 5.9 0 0 0-.8 7.357A53.936 53.936 0 0 0 10.3 56.445a8.606 8.606 0 0 0-4.009-1.007h-.275a6.062 6.062 0 0 0-4.292 1.745 5.9 5.9 0 0 0-.094 8.257l8.008 8.426a2.808 2.808 0 0 0 .362.31v42.762H1.75a1.749 1.749 0 0 0-1.75 1.75v7.559A1.749 1.749 0 0 0 1.75 128h124.5a1.749 1.749 0 0 0 1.75-1.75v-7.559a1.749 1.749 0 0 0-1.75-1.753ZM101.032 91.63a1.75 1.75 0 0 0-2.4.6l-3.661 6.114A29.7 29.7 0 0 0 90.75 113.6v3.334h-4.959A60.61 60.61 0 0 1 110.473 69.9l3.766 3.963a2.746 2.746 0 0 0 .261.223v42.849H94.25V113.6a26.2 26.2 0 0 1 3.723-13.46l3.661-6.114a1.749 1.749 0 0 0-.602-2.396Zm-55.324 25.308a64.132 64.132 0 0 0-25.734-49.609l1.795-1.889a5.877 5.877 0 0 0 1.58-3.5 67.4 67.4 0 0 0 38.1-44.028l.487.513a2.846 2.846 0 0 0 4.125 0l.486-.511a67.4 67.4 0 0 0 38.1 44.028 5.887 5.887 0 0 0 1.581 3.5l1.8 1.889a64.13 64.13 0 0 0-25.735 49.609Zm76-58h.277a2.549 2.549 0 0 1 1.808.709 2.416 2.416 0 0 1 .041 3.382l-7.534 7.926-7.532-7.927a2.417 2.417 0 0 1-.1-3.229 2.414 2.414 0 0 1 1.851-.86h.37a5.129 5.129 0 0 1 4.024 1.971c.012.015.028.025.04.04s.03.031.046.046a1.81 1.81 0 0 0 2.68-.086 5.127 5.127 0 0 1 4.028-1.972Zm-7.568-2.849a8.581 8.581 0 0 0-2.417-.607l-1.151-2.844a87.409 87.409 0 0 0-6.959-13.631l-2-3.187a1.75 1.75 0 0 0-2.965 1.86l2 3.186a84.02 84.02 0 0 1 6.68 13.084l.807 1.995a5.914 5.914 0 0 0-2.138 1.6 6.006 6.006 0 0 0-.608.874A63.857 63.857 0 0 1 69.409 14.9l2.61-2.745a50.433 50.433 0 0 1 42.12 43.934ZM56.509 4.208a2.544 2.544 0 0 1 1.807-.708h.278a5.126 5.126 0 0 1 4.023 1.972 1.812 1.812 0 0 0 2.766 0A5.126 5.126 0 0 1 69.406 3.5h.37a2.415 2.415 0 0 1 1.852.86 2.419 2.419 0 0 1-.1 3.231L70.1 9.093l-.025.026-3.866 4.071-.009.01-2.2 2.315-2.2-2.321-3.886-4.084-1.446-1.522a2.414 2.414 0 0 1 .041-3.38Zm-.527 7.95 2.609 2.742a63.857 63.857 0 0 1-35.979 43.517 6.006 6.006 0 0 0-.612-.874 5.922 5.922 0 0 0-2.138-1.6l.807-1.995a84.1 84.1 0 0 1 6.679-13.084l2-3.186a1.75 1.75 0 0 0-2.965-1.86l-2 3.187a87.409 87.409 0 0 0-6.959 13.631l-1.151 2.844a8.581 8.581 0 0 0-2.417.607 50.432 50.432 0 0 1 42.126-43.929ZM4.167 63.028a2.414 2.414 0 0 1 .041-3.38 2.543 2.543 0 0 1 1.808-.71h.277a5.128 5.128 0 0 1 4.023 1.971 1.81 1.81 0 0 0 2.684.084l.041-.041c.013-.016.03-.027.043-.043a5.128 5.128 0 0 1 4.023-1.971h.371a2.414 2.414 0 0 1 1.851.86 2.418 2.418 0 0 1-.1 3.23L11.7 70.955ZM13.5 74.089a2.813 2.813 0 0 0 .263-.225l3.764-3.964a60.61 60.61 0 0 1 24.682 47.035H37.25V113.6a29.7 29.7 0 0 0-4.221-15.259l-3.661-6.114a1.75 1.75 0 0 0-3 1.8l3.661 6.114A26.2 26.2 0 0 1 33.75 113.6v3.334H13.5Zm111 50.408H3.5v-4.059h121Z"/></svg>