<svg xmlns="http://www.w3.org/2000/svg" width="512" height="512" viewBox="0 0 511.609 511.609"><path d="M214.954 277.352c0 22.523 18.313 40.847 40.823 40.847 54.157-2.243 54.141-79.458 0-81.693-22.51-.001-40.823 18.323-40.823 40.846zm66.645 0c0 14.252-11.584 25.847-25.823 25.847-34.257-1.419-34.247-50.279 0-51.693 14.239-.001 25.823 11.594 25.823 25.846z"/><path d="M491.087 511.609a7.5 7.5 0 0 0 0-15h-41.665l.934-140.567c.053-6.175-3.186-12.021-8.449-15.255l-86.864-53.457v-17.606a7.5 7.5 0 0 0-15 0v226.885H296.6v-69.802c0-20.608-9.154-39.974-25.116-53.131l-9.695-7.993a10.387 10.387 0 0 0-13.385.127l-9.341 8.002c-15.322 13.125-24.109 32.183-24.109 52.286v70.511h-43.443v-271.42c0-.881.425-1.716 1.136-2.234l81.512-59.304a2.74 2.74 0 0 1 3.234 0l81.513 59.304a2.772 2.772 0 0 1 1.136 2.234v14.432a7.5 7.5 0 0 0 15 0v-14.432a17.816 17.816 0 0 0-7.311-14.364l-33.702-24.519v-54.11a17.796 17.796 0 0 0-7.311-14.355l-43.442-31.613V40.651h17.62a7.5 7.5 0 0 0 0-15h-17.62V7.5a7.5 7.5 0 0 0-15 0v18.151h-17.62a7.5 7.5 0 0 0 0 15h17.62v45.577l-43.437 31.61a17.796 17.796 0 0 0-7.316 14.358v54.11l-33.701 24.519a17.817 17.817 0 0 0-7.312 14.364v63.968l-43.908 26.145a7.5 7.5 0 0 0-2.607 10.281c2.132 3.591 6.781 4.707 10.281 2.607l36.234-21.576v189.995H77.132l-.935-140.592a2.745 2.745 0 0 1 1.341-2.378l17.251-10.272a7.499 7.499 0 0 0 2.606-10.281 7.498 7.498 0 0 0-10.281-2.606l-17.243 10.268a17.784 17.784 0 0 0-8.674 15.384l.934 140.479H20.467c-9.892.327-9.958 14.648 0 15 0-.002 470.62-.002 470.62-.002zM212.524 132.196c0-.877.423-1.708 1.137-2.226l42.116-30.648 42.121 30.652a2.758 2.758 0 0 1 1.132 2.223v43.196l-32.812-23.872a17.704 17.704 0 0 0-20.883 0l-32.811 23.872zm17.43 364.413v-70.511c0-15.717 6.877-30.623 18.868-40.895l6.407-5.488 6.714 5.535c12.492 10.298 19.657 25.445 19.657 41.557v69.802zm125.088 0V304.943l79.007 48.622c.814.5 1.315 1.4 1.307 2.363l-.935 140.681z"/></svg>