<svg xmlns="http://www.w3.org/2000/svg" xml:space="preserve" style="enable-background:new 0 0 408.189 408.189" viewBox="0 0 408.189 408.189"><path d="M407.873 368.702c-1.024-2.56-4.096-4.096-6.656-3.072l-29.696 10.752-39.936-109.568c22.016-14.848 22.016-70.656-.512-133.12-7.168-18.944-26.112-65.536-35.84-82.432-1.024-2.048-4.096-3.072-6.144-2.048L214.337 76.35c-2.56 1.024-3.584 3.072-3.072 5.632 3.584 19.456 18.944 67.584 25.6 86.528 11.264 30.72 26.624 58.368 42.496 77.312 14.336 16.384 28.16 25.088 39.936 25.088h2.56l39.936 109.568-31.232 10.752c-2.56 1.024-4.096 4.096-3.072 6.656.512 2.048 2.56 3.584 4.608 3.584.512 0 1.024 0 1.536-.512l70.656-25.6c3.072-1.024 4.608-4.096 3.584-6.656zM222.017 84.542l66.56-24.064c8.704 16.384 22.528 49.152 29.696 68.608-2.56 3.072-5.632 6.144-11.776 8.192-8.704 3.072-14.848 1.536-21.504-1.024-7.68-2.56-15.872-5.12-28.16-.512-8.192 2.56-12.8 7.168-16.384 11.776-6.656-19.968-15.36-47.616-18.432-62.976zm101.376 175.104c-9.216 3.072-22.528-4.096-36.352-20.992-15.36-17.92-29.696-44.544-40.96-74.24-.512-1.536-1.024-3.072-2.048-5.12 4.096-6.144 7.168-11.264 15.872-14.336 8.704-3.072 14.848-1.536 21.504 1.024 7.68 2.56 15.872 5.12 28.16.512 5.12-2.048 9.216-4.608 11.776-7.168 23.552 62.976 19.968 113.664 2.048 120.32zM193.857 75.838l-74.752-27.136c-2.56-1.024-5.12 0-6.144 2.048-10.24 17.408-29.184 63.488-35.84 82.432-22.528 62.464-22.528 118.272-.512 133.12L36.673 375.87 6.977 365.118c-2.56-1.024-5.632.512-6.656 3.072s.512 5.632 3.072 6.656l71.168 26.112c.512 0 1.024.512 1.536.512 2.048 0 4.096-1.536 4.608-3.584 1.024-2.56-.512-5.632-3.072-6.656l-31.232-11.264 39.936-109.568h2.56c11.776 0 25.6-8.704 39.936-25.088 16.384-18.944 31.232-46.592 42.496-77.312 7.168-18.944 22.016-66.56 25.6-86.528 1.024-2.048-.512-4.608-3.072-5.632zm-31.744 88.576c-10.752 29.696-25.088 56.32-40.96 74.24-14.336 16.384-27.648 24.064-36.352 20.992-17.408-6.144-20.992-57.344 1.024-119.808 3.072 2.56 6.656 5.12 11.776 7.168 12.288 4.608 20.48 1.536 28.16-.512 6.656-2.048 12.8-4.096 21.504-1.024s12.288 8.192 15.872 14.336c0 1.536-.512 3.072-1.024 4.608zm5.632-16.896c-3.584-4.608-8.192-9.216-16.384-12.288-12.288-4.608-20.48-1.536-28.16.512-6.656 2.048-12.8 4.096-21.504 1.024-5.632-2.048-9.216-5.12-11.776-8.192 7.68-19.968 20.992-52.224 29.696-68.608l66.56 24.064c-3.072 15.872-11.264 43.008-18.432 63.488zM203.073 6.718c-3.072 0-5.12 2.048-5.12 5.12l-.512 26.624c0 3.072 2.048 5.12 5.12 5.12 2.56 0 5.12-2.048 5.12-5.12l.512-26.624c0-2.56-2.048-5.12-5.12-5.12zM249.665 13.374c-2.048-1.536-5.632-.512-7.168 1.536l-13.824 23.04c-1.536 3.072-1.024 6.144 1.536 7.68 1.024.512 1.536.512 2.56.512 1.536 0 3.584-1.024 4.608-2.56l13.824-23.04c1.536-2.56.512-5.632-1.536-7.168zM176.961 38.462l-14.336-23.04c-1.536-2.56-4.608-3.072-7.168-1.536s-3.072 4.608-1.536 7.168l14.848 23.04c1.024 1.536 2.56 2.56 4.096 2.56 1.024 0 2.048 0 2.56-1.024 2.56-1.536 3.072-4.608 1.536-7.168z"/></svg>